<svg xmlns="http://www.w3.org/2000/svg" id="Layer_1" viewBox="0 0 1795 420">
  <defs>
    <style>
      .cls-1{fill:url(#linear-gradient)}
      .cls-2{fill:#f2f2f2}
      .cls-3{fill:url(#linear-gradient-3)}
      .cls-4{fill:url(#linear-gradient-4)}
      .cls-5{fill:url(#linear-gradient-2)}
      .cls-6{fill:url(#linear-gradient-5)}
    </style>
    <linearGradient id="linear-gradient" x1="16.94" y1="321.65" x2="411.94" y2="321.65" gradientUnits="userSpaceOnUse">
      <stop offset="0" stop-color="#00f3ff"/>
      <stop offset="1" stop-color="#00d4aa"/>
    </linearGradient>
    <linearGradient id="linear-gradient-2" x1="16.94" y1="195.54" x2="411.94" y2="195.54" gradientUnits="userSpaceOnUse">
      <stop offset="0" stop-color="#00f3ff"/>
      <stop offset="1" stop-color="#00d4aa"/>
    </linearGradient>
    <linearGradient id="linear-gradient-3" x1="16.94" y1="239.99" x2="411.94" y2="239.99" gradientUnits="userSpaceOnUse">
      <stop offset="0" stop-color="#00f3ff"/>
      <stop offset="1" stop-color="#00d4aa"/>
    </linearGradient>
    <linearGradient id="linear-gradient-4" x1="16.94" y1="210" x2="411.94" y2="210" gradientUnits="userSpaceOnUse">
      <stop offset="0" stop-color="#00f3ff"/>
      <stop offset="1" stop-color="#00d4aa"/>
    </linearGradient>
    <linearGradient id="linear-gradient-5" x1="16.94" y1="273.25" x2="411.94" y2="273.25" gradientUnits="userSpaceOnUse">
      <stop offset="0" stop-color="#00f3ff"/>
      <stop offset="1" stop-color="#00d4aa"/>
    </linearGradient>
  </defs>
  <g>
    <path class="cls-2" d="M544.57,317.48V101.72h46.88c15.98,0,28.63,2.44,37.96,7.33,9.32,4.89,15.98,12.21,19.98,21.97,4,9.77,5.99,21.93,5.99,36.49v79.38c0,15.27-2,28.15-5.99,38.62-3.99,10.48-10.48,18.42-19.44,23.84-8.97,5.42-21,8.12-36.09,8.12h-49.28Zm30.1-21.57h17.05c11.01,0,18.82-2.13,23.44-6.4,4.62-4.26,7.41-10.48,8.39-18.64,.97-8.17,1.46-18.02,1.46-29.57v-70.05c0-11.19-.71-20.24-2.13-27.17-1.42-6.93-4.53-11.99-9.32-15.18s-12.34-4.79-22.64-4.79h-16.25v171.8Z"/>
    <path class="cls-2" d="M686.54,317.48V101.72h29.57v215.76h-29.57Z"/>
    <path class="cls-2" d="M802.41,320.14c-13.5,0-24.28-2.88-32.36-8.66-8.08-5.77-13.94-14.16-17.58-25.17-3.64-11.01-5.46-24.24-5.46-39.69v-72.18c0-15.8,1.64-29.25,4.93-40.35,3.28-11.1,9.14-19.58,17.58-25.44,8.43-5.86,20.2-8.79,35.29-8.79,13.49,0,24.37,2.26,32.63,6.79,8.26,4.53,14.25,11.45,17.98,20.78,3.73,9.32,5.59,21.09,5.59,35.29v7.99h-28.23v-6.66c0-9.41-.62-17.09-1.86-23.04-1.24-5.95-3.77-10.39-7.59-13.32-3.82-2.93-9.81-4.39-17.98-4.39-8.88,0-15.32,2.04-19.31,6.13-4,4.09-6.49,9.63-7.46,16.65-.98,7.02-1.46,14.96-1.46,23.84v79.91c0,10.3,.75,18.91,2.26,25.84,1.51,6.93,4.39,12.08,8.66,15.45,4.26,3.38,10.3,5.06,18.11,5.06s13.85-1.86,18.11-5.59c4.26-3.73,7.19-9.23,8.79-16.51,1.6-7.28,2.4-16.33,2.4-27.17v-14.91h-27.44v-21.31h54.6v106.81h-18.91l-2.93-24.77c-2.84,7.99-7.28,14.56-13.32,19.71-6.04,5.15-14.38,7.72-25.04,7.72Z"/>
    <path class="cls-2" d="M895.1,317.48V101.72h29.57v215.76h-29.57Z"/>
    <path class="cls-2" d="M961.15,317.48V101.72h29.57v215.76h-29.57Z"/>
    <path class="cls-2" d="M1114.57,317.48l-35.16-215.76h25.04l23.17,155.02,29.03-154.22h21.31l29.3,155.02,22.64-155.82h24.5l-34.63,215.76h-21.84l-30.1-159.82-30.37,159.82h-22.91Z"/>
    <path class="cls-2" d="M1333.78,319.87c-14.56,0-26.2-2.84-34.89-8.52-8.7-5.68-14.92-13.81-18.65-24.37-3.73-10.56-5.59-22.95-5.59-37.16v-81.77c0-14.21,1.91-26.41,5.73-36.62,3.82-10.21,10.03-18.02,18.64-23.44,8.61-5.42,20.2-8.12,34.76-8.12s26.1,2.76,34.63,8.26c8.52,5.51,14.69,13.32,18.51,23.44,3.82,10.12,5.72,22.29,5.72,36.49v82.04c0,14.03-1.91,26.28-5.72,36.76-3.82,10.48-9.99,18.61-18.51,24.37-8.53,5.77-20.07,8.66-34.63,8.66Zm0-23.71c7.99,0,14.03-1.64,18.11-4.93,4.08-3.28,6.83-7.9,8.26-13.85,1.42-5.95,2.13-12.92,2.13-20.91v-94.56c0-7.99-.71-14.87-2.13-20.64-1.42-5.77-4.17-10.21-8.26-13.32-4.09-3.11-10.12-4.66-18.11-4.66s-14.08,1.55-18.25,4.66c-4.17,3.11-6.97,7.55-8.39,13.32-1.42,5.77-2.13,12.65-2.13,20.64v94.56c0,7.99,.71,14.96,2.13,20.91,1.42,5.95,4.22,10.57,8.39,13.85,4.17,3.29,10.26,4.93,18.25,4.93Z"/>
    <path class="cls-2" d="M1422.21,317.48V101.72h43.42c14.38,0,26.28,1.91,35.69,5.73,9.41,3.82,16.38,9.95,20.91,18.38,4.53,8.44,6.79,19.49,6.79,33.16,0,8.35-.89,15.94-2.67,22.78-1.78,6.84-4.62,12.61-8.52,17.31-3.91,4.71-9.06,8.12-15.45,10.26l30.63,108.14h-29.03l-28.23-101.22h-23.44v101.22h-30.1Zm30.1-122.79h11.45c8.53,0,15.45-1.06,20.78-3.2,5.33-2.13,9.23-5.77,11.72-10.92,2.49-5.15,3.73-12.34,3.73-21.57,0-12.61-2.31-21.71-6.93-27.3-4.62-5.6-13.76-8.39-27.43-8.39h-13.32v71.38Z"/>
    <path class="cls-2" d="M1560.46,317.48V101.72h30.1v101.75l49.54-101.75h27.97l-42.62,95.09,49.54,120.66h-29.3l-41.28-101.22-13.85,25.04v76.18h-30.1Z"/>
    <path class="cls-2" d="M1743.18,319.87c-12.43,0-22.78-2.66-31.03-7.99-8.26-5.33-14.52-12.7-18.78-22.11-4.26-9.41-6.75-20.33-7.46-32.76l26.64-7.19c.53,7.64,1.73,15.01,3.59,22.11,1.87,7.1,4.93,12.92,9.19,17.45s10.21,6.79,17.85,6.79,13.72-2.17,17.71-6.52,5.99-10.61,5.99-18.78c0-9.76-2.22-17.62-6.66-23.57-4.44-5.95-10.03-11.94-16.78-17.98l-36.23-31.97c-7.1-6.21-12.34-13-15.71-20.38-3.38-7.37-5.06-16.47-5.06-27.3,0-15.8,4.53-28.06,13.58-36.76,9.06-8.7,21.39-13.05,37.02-13.05,8.53,0,16.02,1.11,22.51,3.33,6.48,2.22,11.9,5.64,16.25,10.26,4.35,4.62,7.81,10.43,10.39,17.45,2.57,7.02,4.3,15.23,5.19,24.64l-25.57,6.93c-.53-7.1-1.6-13.63-3.2-19.58-1.6-5.95-4.4-10.74-8.39-14.38-4-3.64-9.72-5.46-17.18-5.46s-13.28,2-17.45,5.99c-4.17,3.99-6.26,9.9-6.26,17.71,0,6.57,1.11,11.99,3.33,16.25,2.22,4.26,5.81,8.62,10.79,13.05l36.49,31.96c8.17,7.11,15.36,15.58,21.58,25.44,6.21,9.86,9.32,21.53,9.32,35.03,0,10.66-2.22,19.84-6.66,27.57-4.44,7.73-10.52,13.63-18.25,17.71-7.73,4.08-16.65,6.13-26.77,6.13Z"/>
  </g>
  <g>
    <rect class="cls-1" x="96.7" y="321.64" width=".25" height=".01"/>
    <g>
      <rect class="cls-5" x="96.95" y="166.29" width="58.49" height="58.49"/>
      <rect class="cls-3" x="155.44" y="224.78" width="30.42" height="30.42"/>
      <path class="cls-4" d="M451.52,210c0,41.07-11.88,79.37-32.38,111.64-8.24,12.96-17.86,24.95-28.67,35.76s-22.8,20.43-35.76,28.66c-32.27,20.51-70.57,32.39-111.64,32.39H96.7v-96.8H243.07c30.82-.01,58.74-12.51,78.94-32.71,20.2-20.2,32.7-48.11,32.7-78.94,0-61.66-49.99-111.64-111.64-111.64H96.7V1.55H243.07c41.07,0,79.37,11.88,111.64,32.39,25.92,16.47,47.95,38.5,64.42,64.42,20.51,32.27,32.39,70.57,32.39,111.64Z"/>
      <polygon class="cls-6" points="96.7 321.64 96.7 321.65 .14 321.65 .14 224.84 96.95 224.84 96.95 321.64 96.7 321.64"/>
      <rect class="cls-1" x="96.7" y="321.64" width=".25" height=".01"/>
    </g>
  </g>
</svg>